<?xml version="1.0" encoding="utf-8"?>
<!-- Generator: Adobe Illustrator 18.1.1, SVG Export Plug-In . SVG Version: 6.00 Build 0)  -->
<svg version="1.1" id="Ebene_1" xmlns="http://www.w3.org/2000/svg" xmlns:xlink="http://www.w3.org/1999/xlink" x="0px" y="0px"
	 width="313px" height="62px" viewBox="0 0 313 62" style="enable-background:new 0 0 313 62;" xml:space="preserve">
<g>
	<g>
		<path style="fill:#E0001A;" d="M27.7,13.9c-0.2-1.2-0.3-2.1-1-3.2C25.6,9.1,23.6,8,19.6,8c0,0-6.9-0.3-6.9,4.3
			c0,0.9,0.3,2.5,2.2,3.3c1,0.5,3.2,1.1,5.9,1.7c8.5,1.7,12.8,2.7,16.1,5.8c2.5,2.2,3.5,4.9,3.5,8.2c0,3-0.8,5.8-2.6,8.1
			C35,43,30,46.1,20.4,46.1c-1.8,0-12.9,0.3-18-7.4c-2.1-3.2-2.3-6.7-2.4-8h11.4c0.3,2.2,0.8,3.2,1.4,4.2c1.1,1.5,3.7,3.1,7.9,3.1
			c0.7,0,3.2,0,5.3-1.2c2.2-1.2,2.7-3.1,2.7-4.3c0-0.3-0.1-0.9-0.4-1.7c-0.7-1.4-2-2.1-3.5-2.6c-5-1.6-9.9-2.1-14.9-3.7
			c-2.3-0.8-8.9-3.1-8.9-11.1C1,8.1,3.7,5.3,5.3,4.1C10.6-0.2,18,0,19.6,0C20.7,0,31-0.3,36,5.6c1.3,1.6,2.6,3.9,3,8.3H27.7z"/>
		<path style="fill:#E0001A;" d="M90,39.4c-0.1,0.9-0.1,1.8-0.1,2.7c-0.1,1.9-0.1,7.7-4,12.4c-4.4,5.2-11.4,6.5-17.9,6.5
			c-1,0-3.5-0.1-6.2-0.4C59.6,60.3,50.7,59,48,50.5c-0.3-0.7-0.5-1.5-0.7-3.1h12c0.2,0.9,0.4,1.4,0.5,1.8c1.1,2.1,3.5,3.8,8.5,3.8
			c0.8,0,3.3,0,5.8-1.2c4.1-2,4.2-6.2,4.3-10.1v-5c-0.6,0.8-1.4,2.1-3.3,3.5c-3.1,2.4-6.2,3.2-10.2,3.2c-2.4,0-8.7-0.3-13.6-5.4
			c-2.5-2.6-5.4-7.4-5.4-15.8c0-2.2,0-9.4,4.6-15.2c2-2.6,6.5-7,14.9-7c1.6,0,6.5,0.2,10.4,3.6c0.8,0.7,1.7,1.6,2.9,3.4V1.3H90V39.4
			z M60,13.4c-1.2,1.7-2.3,4.2-2.3,8.7c0,0.8-0.1,2.7,0.6,4.8c0.6,2.1,2.9,7.7,9.9,7.7c0.9,0,3.4-0.1,5.5-1.5
			c2.2-1.4,4.8-5,4.8-11.2c0-6.7-3.1-12.5-10.5-12.4C63.2,9.4,61.1,11.7,60,13.4z"/>
		<path style="fill:#E0001A;" d="M124.3,44.8h-13.4L95.9,1.3h12.5l9.4,31.6l9.4-31.6h11.9L124.3,44.8z"/>
	</g>
	<g>
		<path style="fill:#1A171B;" d="M164,3.2c0-0.1,0-0.2-0.1-0.4c-0.2-0.6-1-0.6-1.1-0.6c-0.8,0-1,0.4-1,0.7c0,0.2,0.1,0.3,0.1,0.3
			c0.2,0.2,0.3,0.2,0.7,0.3c0.5,0.1,1.1,0.3,1.6,0.4c0.5,0.2,0.8,0.4,1.1,0.8c0.3,0.4,0.3,0.8,0.3,1c0,0.5-0.1,0.8-0.4,1.2
			c-0.3,0.5-1,0.9-2.2,0.9c-1.6,0-2.3-0.7-2.6-1.4c-0.1-0.2-0.2-0.4-0.2-0.9h1.4c0,0.2,0,0.4,0.1,0.6c0.3,0.6,1.2,0.6,1.3,0.6
			c0.1,0,0.3,0,0.5-0.1c0.6-0.2,0.7-0.6,0.7-0.8c0-0.1,0-0.3-0.2-0.4c-0.2-0.2-0.9-0.3-1.2-0.4c-0.3-0.1-0.5-0.2-0.8-0.2
			c-0.6-0.2-1.2-0.4-1.5-1.1c-0.1-0.3-0.1-0.5-0.1-0.6c0-0.1,0-0.5,0.2-0.8c0.3-0.5,0.9-1.1,2.2-1.1c0.1,0,0.5,0,0.9,0.1
			c0.3,0.1,1.2,0.4,1.5,1.3c0.1,0.3,0.1,0.6,0.1,0.7L164,3.2z"/>
		<path style="fill:#1A171B;" d="M169.8,4.7c0-0.1,0-0.1-0.1-0.2c-0.1-0.4-0.5-0.6-0.9-0.6c-0.6,0-1.2,0.4-1.2,1.5
			c0,0.2,0,1.5,1.2,1.5c0.6,0,1-0.4,1-0.9h1.2c-0.1,0.4-0.2,0.8-0.5,1.2c-0.6,0.7-1.5,0.8-1.8,0.8c-0.6,0-1.1-0.1-1.5-0.5
			c-0.3-0.3-0.9-0.8-0.9-2c0-0.2,0-0.6,0.2-1.1c0.2-0.5,0.8-1.4,2.2-1.4c1.5,0,2,0.8,2.2,1.4c0,0.1,0,0.2,0.1,0.3H169.8z"/>
		<path style="fill:#1A171B;" d="M173.3,3.7c0-0.1,0.1-0.1,0.2-0.2c0.2-0.2,0.6-0.5,1.3-0.5c0.3,0,1.3,0.1,1.5,1
			c0.1,0.3,0.1,0.5,0.1,0.8v3h-1.3V5c0-0.1,0-0.1,0-0.2c0-0.1,0-0.5-0.3-0.7C174.6,4,174.4,4,174.3,4c-0.5,0-0.7,0.3-0.8,0.4
			c-0.2,0.3-0.2,0.7-0.2,1v2.3H172V1.3h1.3L173.3,3.7z"/>
		<path style="fill:#1A171B;" d="M182.8,7.7h-1.3l-0.8-3.4l-0.8,3.4h-1.3L177,3.1h1.4l0.9,3.4l0.8-3.4h1.3l0.8,3.4l0.9-3.4h1.3
			L182.8,7.7z"/>
		<path style="fill:#1A171B;" d="M185.9,5.7c0,0.1,0,0.2,0.1,0.4c0.1,0.3,0.3,0.8,1.1,0.8c0.2,0,0.5,0,0.8-0.4
			c0-0.1,0.1-0.1,0.1-0.3h1.2c0,0.1-0.1,0.2-0.1,0.4c-0.2,0.5-0.7,0.9-1.2,1.1c-0.4,0.1-0.8,0.1-0.9,0.1c-0.2,0-0.6,0-1-0.2
			c-0.9-0.4-1.4-1.3-1.4-2.3c0-1.4,0.9-2.5,2.3-2.5c0.2,0,0.8,0,1.3,0.4c1,0.7,1,2.1,1,2.4H185.9z M188,4.9c0-0.1,0-0.3-0.1-0.5
			c-0.2-0.4-0.5-0.6-0.9-0.6c-0.4,0-0.7,0.2-0.9,0.6c-0.1,0.1-0.1,0.2-0.1,0.5H188z"/>
		<path style="fill:#1A171B;" d="M191.5,2.4h-1.3V1.3h1.3V2.4z M191.5,7.7h-1.3V3.1h1.3V7.7z"/>
		<path style="fill:#1A171B;" d="M196.6,3.9L194,6.8h2.8v1h-4.3V6.8l2.6-2.8h-2.4V3.1h4V3.9z"/>
		<path style="fill:#1A171B;" d="M198.7,5.7c0,0.1,0,0.2,0.1,0.4c0.1,0.3,0.3,0.8,1.1,0.8c0.2,0,0.5,0,0.8-0.4
			c0-0.1,0.1-0.1,0.1-0.3h1.2c0,0.1-0.1,0.2-0.1,0.4c-0.2,0.5-0.7,0.9-1.2,1.1c-0.4,0.1-0.8,0.1-0.9,0.1c-0.2,0-0.6,0-1-0.2
			c-0.9-0.4-1.4-1.3-1.4-2.3c0-1.4,0.9-2.5,2.4-2.5c0.2,0,0.8,0,1.3,0.4c1,0.7,1,2.1,1,2.4H198.7z M200.7,4.9c0-0.1,0-0.3-0.1-0.5
			c-0.2-0.4-0.5-0.6-0.9-0.6c-0.4,0-0.7,0.2-0.9,0.6c-0.1,0.1-0.1,0.2-0.1,0.5H200.7z"/>
		<path style="fill:#1A171B;" d="M205.9,4.1c-0.1,0-0.2,0-0.4,0c-0.2,0-0.6,0-0.9,0.5c-0.2,0.3-0.2,0.7-0.2,1.1v2H203V3.1h1.2v0.9
			c0.1-0.2,0.4-0.7,1-0.9c0.1,0,0.2-0.1,0.4-0.1c0.1,0,0.2,0,0.2,0V4.1z"/>
		<path style="fill:#1A171B;" d="M214.9,7.7h-0.9L213.8,7c0,0-0.1,0.2-0.3,0.3c-0.6,0.6-1.3,0.6-1.6,0.6c-0.4,0-1.3-0.1-2-0.9
			c-0.4-0.4-0.8-1.2-0.8-2.4c0-1.7,0.8-2.6,1.4-3c0.1-0.1,0.5-0.3,0.9-0.4c0.3-0.1,0.6-0.1,0.7-0.1c0.4,0,1.2,0,1.9,0.8
			c0.2,0.2,0.4,0.5,0.5,0.8c0.1,0.2,0.2,0.5,0.2,0.7l-1.4,0c0-0.1,0-0.2-0.1-0.4c-0.1-0.2-0.4-0.7-1.1-0.7c-0.4,0-0.7,0.2-0.9,0.3
			c-0.6,0.4-0.7,1.3-0.7,1.9c0,0.6,0.1,1.4,0.6,1.8c0.4,0.4,0.8,0.4,1,0.4c0.1,0,0.4,0,0.6-0.1c0.5-0.2,0.7-0.8,0.8-1.3h-1.3v-1h2.6
			V7.7z"/>
		<path style="fill:#1A171B;" d="M219,4.1c-0.1,0-0.2,0-0.4,0c-0.2,0-0.6,0-0.9,0.5c-0.2,0.3-0.2,0.7-0.2,1.1v2h-1.3V3.1h1.2v0.9
			c0.1-0.2,0.4-0.7,1-0.9c0.1,0,0.2-0.1,0.4-0.1c0.1,0,0.2,0,0.2,0V4.1z"/>
		<path style="fill:#1A171B;" d="M222.8,7.7c-0.1-0.2-0.1-0.3-0.1-0.4c-0.3,0.2-0.7,0.6-1.5,0.6c-1.3,0-1.6-0.9-1.6-1.4
			c0-0.3,0.1-0.9,0.7-1.2c0.4-0.2,1-0.2,1.5-0.3c0.2,0,0.7-0.1,0.9-0.2c0.1-0.1,0.1-0.3,0.1-0.3c0-0.5-0.4-0.6-0.8-0.6
			c-0.2,0-0.4,0-0.5,0.1C221,4,221,4.4,221,4.5l-1.2,0c0-0.3,0.1-0.6,0.3-0.9c0.3-0.4,0.8-0.7,1.8-0.7c0.1,0,0.7,0,1.1,0.2
			c0.2,0.1,0.4,0.2,0.5,0.3c0.2,0.1,0.3,0.3,0.3,0.4c0.1,0.2,0.1,0.4,0.1,0.8c0,0.3,0,0.6,0,1c0,0.3,0,0.7,0,1c0,0.7,0,1,0.2,1.3
			H222.8z M222.7,5.5c0,0-0.1,0.1-0.1,0.1c-0.2,0.1-0.4,0.1-0.9,0.2c0,0-0.3,0.1-0.5,0.1c-0.2,0.1-0.4,0.3-0.4,0.6
			c0,0.2,0.1,0.6,0.7,0.6c0.5,0,0.7-0.2,0.9-0.3c0.1-0.1,0.2-0.2,0.2-0.3c0.1-0.2,0.1-0.4,0.1-0.5V5.5z"/>
		<path style="fill:#1A171B;" d="M227.7,2.2c-0.2,0-0.3,0-0.5,0c0,0-0.3,0-0.4,0.1c-0.1,0.1-0.1,0.3-0.1,0.4v0.4h0.9v0.9h-0.9v3.8
			h-1.3V3.9h-0.7V3.1h0.7V2.8c0-0.4,0-0.8,0.3-1.1c0.4-0.4,1-0.5,1.5-0.5c0.2,0,0.3,0,0.5,0V2.2z"/>
		<path style="fill:#1A171B;" d="M229.8,2.4h-1.3V1.3h1.3V2.4z M229.8,7.7h-1.3V3.1h1.3V7.7z"/>
		<path style="fill:#1A171B;" d="M233.7,4.8l2,2.9h-1.6l-1.3-2.1l-0.5,0.5v1.6h-1.3V1.3h1.3l0,3.5l1.7-1.7h1.5L233.7,4.8z"/>
		<path style="fill:#1A171B;" d="M237.2,5.7c0,0.1,0,0.2,0.1,0.4c0.1,0.3,0.3,0.8,1.1,0.8c0.2,0,0.5,0,0.8-0.4
			c0-0.1,0.1-0.1,0.1-0.3h1.2c0,0.1-0.1,0.2-0.1,0.4c-0.2,0.5-0.7,0.9-1.2,1.1c-0.4,0.1-0.8,0.1-0.9,0.1c-0.2,0-0.6,0-1-0.2
			c-0.9-0.4-1.4-1.3-1.4-2.3c0-1.4,0.9-2.5,2.3-2.5c0.2,0,0.8,0,1.3,0.4c1,0.7,1,2.1,1,2.4H237.2z M239.3,4.9c0-0.1,0-0.3-0.1-0.5
			c-0.2-0.4-0.5-0.6-0.9-0.6c-0.4,0-0.7,0.2-0.9,0.6c-0.1,0.1-0.1,0.2-0.1,0.5H239.3z"/>
		<path style="fill:#1A171B;" d="M244.4,4.1c-0.1,0-0.2,0-0.4,0c-0.2,0-0.6,0-0.9,0.5c-0.2,0.3-0.2,0.7-0.2,1.1v2h-1.3V3.1h1.2v0.9
			c0.1-0.2,0.4-0.7,1-0.9c0.1,0,0.2-0.1,0.4-0.1c0.1,0,0.2,0,0.2,0V4.1z"/>
		<path style="fill:#1A171B;" d="M251.1,7.7h-1.6l-2.1-6.5h1.5l1.5,4.8l1.5-4.8h1.5L251.1,7.7z"/>
		<path style="fill:#1A171B;" d="M254.6,5.7c0,0.1,0,0.2,0.1,0.4c0.1,0.3,0.3,0.8,1.1,0.8c0.2,0,0.5,0,0.8-0.4
			c0-0.1,0.1-0.1,0.1-0.3h1.2c0,0.1-0.1,0.2-0.1,0.4c-0.2,0.5-0.7,0.9-1.2,1.1c-0.4,0.1-0.8,0.1-0.9,0.1c-0.2,0-0.6,0-1-0.2
			c-0.9-0.4-1.4-1.3-1.4-2.3c0-1.4,0.9-2.5,2.3-2.5c0.2,0,0.8,0,1.3,0.4c1,0.7,1,2.1,1,2.4H254.6z M256.6,4.9c0-0.1,0-0.3-0.1-0.5
			c-0.2-0.4-0.5-0.6-0.9-0.6c-0.4,0-0.7,0.2-0.9,0.6c-0.1,0.1-0.1,0.2-0.1,0.5H256.6z"/>
		<path style="fill:#1A171B;" d="M261.8,4.1c-0.1,0-0.2,0-0.4,0c-0.2,0-0.6,0-0.9,0.5c-0.2,0.3-0.2,0.7-0.2,1.1v2h-1.3V3.1h1.2v0.9
			c0.1-0.2,0.4-0.7,1-0.9c0.1,0,0.2-0.1,0.4-0.1c0.1,0,0.2,0,0.2,0V4.1z"/>
		<path style="fill:#1A171B;" d="M263.8,7.7h-1.2V1.3h1.3V3c0,0.2,0,0.4,0,0.6c0,0,0.1-0.1,0.2-0.2c0.5-0.4,1.1-0.4,1.2-0.4
			c0.8,0,2,0.5,2,2.4c0,0.5-0.1,1.1-0.4,1.6c-0.2,0.3-0.7,1-1.7,1c-0.7,0-1.1-0.3-1.3-0.5c-0.1-0.1-0.1-0.1-0.2-0.2V7.7z M263.8,5.4
			c0,1.1,0.6,1.5,1.1,1.5c0.8,0,1.1-0.8,1.1-1.5c0-0.4-0.1-0.9-0.4-1.1c-0.1-0.1-0.3-0.3-0.7-0.3C264.4,3.9,263.8,4.3,263.8,5.4z"/>
		<path style="fill:#1A171B;" d="M271.3,7.7c-0.1-0.2-0.1-0.3-0.1-0.4c-0.3,0.2-0.7,0.6-1.5,0.6c-1.3,0-1.6-0.9-1.6-1.4
			c0-0.3,0.1-0.9,0.7-1.2c0.4-0.2,1-0.2,1.5-0.3c0.2,0,0.7-0.1,0.9-0.2c0.1-0.1,0.1-0.3,0.1-0.3c0-0.5-0.4-0.6-0.8-0.6
			c-0.2,0-0.4,0-0.5,0.1c-0.4,0.1-0.4,0.5-0.4,0.6l-1.2,0c0-0.3,0.1-0.6,0.3-0.9c0.3-0.4,0.8-0.7,1.8-0.7c0.1,0,0.7,0,1.1,0.2
			c0.2,0.1,0.4,0.2,0.5,0.3c0.2,0.1,0.3,0.3,0.3,0.4c0.1,0.2,0.1,0.4,0.1,0.8c0,0.3,0,0.6,0,1c0,0.3,0,0.7,0,1c0,0.7,0,1,0.2,1.3
			H271.3z M271.2,5.5c0,0-0.1,0.1-0.1,0.1c-0.2,0.1-0.4,0.1-0.9,0.2c0,0-0.3,0.1-0.5,0.1c-0.2,0.1-0.4,0.3-0.4,0.6
			c0,0.2,0.1,0.6,0.7,0.6c0.5,0,0.7-0.2,0.9-0.3c0.1-0.1,0.2-0.2,0.2-0.3c0.1-0.2,0.1-0.4,0.1-0.5V5.5z"/>
		<path style="fill:#1A171B;" d="M274.9,3.7c0.1-0.2,0.2-0.3,0.4-0.4c0.2-0.1,0.6-0.4,1.1-0.4c0.3,0,1.2,0.1,1.5,0.9
			c0.1,0.3,0.1,0.6,0.1,0.9v3h-1.3V5c0-0.3,0-0.7-0.3-0.9C276.4,4.1,276.2,4,276,4c-0.5,0-0.7,0.3-0.8,0.4c-0.2,0.3-0.2,0.6-0.2,0.9
			v2.4h-1.3V3.1h1.2V3.7z"/>
		<path style="fill:#1A171B;" d="M282.5,1.3h1.3v6.5h-1.2V7.1c-0.1,0.1-0.1,0.2-0.2,0.2c-0.2,0.2-0.6,0.5-1.3,0.5
			c-0.5,0-1-0.2-1.4-0.5c-0.7-0.7-0.7-1.7-0.7-2c0-0.2,0-0.6,0.1-1c0.3-0.9,1-1.4,1.9-1.4c0.6,0,1,0.3,1.2,0.4
			c0.1,0.1,0.1,0.2,0.2,0.3V1.3z M281,4c-0.3,0.2-0.6,0.6-0.6,1.3c0,0.1,0,0.8,0.4,1.2c0.3,0.2,0.6,0.2,0.7,0.2
			c0.5,0,1.1-0.3,1.1-1.4c0-0.1,0-0.8-0.4-1.2c-0.1-0.1-0.3-0.2-0.7-0.2C281.2,3.9,281,4,281,4z"/>
		<path style="fill:#1A171B;" d="M165.9,17.4c0,0.2,0,0.3,0,0.5c0,0.8-0.3,1.2-0.5,1.5c-0.4,0.4-1,0.8-2.2,0.8c-1.1,0-1.6-0.3-2-0.6
			c-0.1-0.1-0.4-0.4-0.6-0.9c-0.1-0.4-0.2-0.6-0.2-1.3v-3.8h1.4v3.9c0,0.1,0,0.3,0,0.6c0.1,0.5,0.3,1,1.3,1c0.4,0,0.6-0.1,0.8-0.2
			c0.5-0.3,0.5-0.9,0.5-1.4v-3.9h1.4V17.4z"/>
		<path style="fill:#1A171B;" d="M168.4,16.1c0.1-0.2,0.2-0.3,0.4-0.4c0.2-0.1,0.6-0.4,1.1-0.4c0.3,0,1.2,0.1,1.5,0.9
			c0.1,0.3,0.1,0.6,0.1,0.9v3h-1.3v-2.7c0-0.3,0-0.7-0.3-0.9c-0.1-0.1-0.2-0.2-0.5-0.2c-0.5,0-0.7,0.3-0.8,0.4
			c-0.2,0.3-0.2,0.6-0.2,0.9v2.4h-1.3v-4.7h1.2V16.1z"/>
		<path style="fill:#1A171B;" d="M174,14.7h-1.3v-1.1h1.3V14.7z M174,20.1h-1.3v-4.7h1.3V20.1z"/>
		<path style="fill:#1A171B;" d="M179,15.8c0.6,0.5,0.8,1.2,0.8,1.9c0,0.3,0,1.1-0.6,1.8c-0.3,0.3-0.8,0.7-1.7,0.7
			c-0.2,0-0.6,0-1-0.2c-1-0.4-1.4-1.3-1.4-2.3c0-0.5,0.1-0.8,0.2-1c0.2-0.5,0.8-1.4,2.2-1.4C177.7,15.3,178.4,15.3,179,15.8z
			 M176.3,17.7c0,0.8,0.2,1.1,0.5,1.4c0.2,0.2,0.5,0.2,0.6,0.2c0.1,0,0.3,0,0.6-0.2c0.4-0.3,0.5-0.9,0.5-1.4c0-0.5-0.1-1-0.5-1.3
			c-0.2-0.2-0.5-0.2-0.6-0.2C176.9,16.3,176.3,16.6,176.3,17.7z"/>
		<path style="fill:#1A171B;" d="M182.1,16.1c0.1-0.2,0.2-0.3,0.4-0.4c0.2-0.1,0.6-0.4,1.1-0.4c0.3,0,1.2,0.1,1.5,0.9
			c0.1,0.3,0.1,0.6,0.1,0.9v3h-1.3v-2.7c0-0.3,0-0.7-0.3-0.9c-0.1-0.1-0.2-0.2-0.5-0.2c-0.5,0-0.7,0.3-0.8,0.4
			c-0.2,0.3-0.2,0.6-0.2,0.9v2.4h-1.3v-4.7h1.2V16.1z"/>
		<path style="fill:#1A171B;" d="M192.7,15.5c0-0.1,0-0.2-0.1-0.4c-0.2-0.6-1-0.6-1.1-0.6c-0.8,0-1,0.4-1,0.7c0,0.2,0.1,0.3,0.1,0.3
			c0.2,0.2,0.3,0.2,0.7,0.3c0.5,0.1,1.1,0.3,1.6,0.4c0.5,0.2,0.9,0.4,1.1,0.8c0.3,0.4,0.3,0.8,0.3,1c0,0.5-0.1,0.8-0.4,1.2
			c-0.3,0.5-1,0.9-2.2,0.9c-1.6,0-2.3-0.7-2.6-1.4c-0.1-0.2-0.2-0.4-0.2-0.9h1.4c0,0.2,0,0.4,0.1,0.6c0.3,0.6,1.2,0.6,1.3,0.6
			c0.1,0,0.3,0,0.5-0.1c0.6-0.2,0.7-0.6,0.7-0.8c0-0.1,0-0.3-0.2-0.4c-0.2-0.2-0.9-0.3-1.2-0.4c-0.3-0.1-0.6-0.2-0.8-0.2
			c-0.6-0.2-1.2-0.4-1.5-1.1c-0.1-0.3-0.1-0.5-0.1-0.6c0-0.1,0-0.5,0.2-0.8c0.3-0.5,0.9-1.1,2.2-1.1c0.1,0,0.5,0,0.9,0.1
			c0.3,0.1,1.2,0.4,1.5,1.3c0.1,0.3,0.1,0.6,0.1,0.7L192.7,15.5z"/>
		<path style="fill:#1A171B;" d="M199.6,20.1h-1.2v-0.7c-0.1,0.2-0.2,0.3-0.3,0.3c-0.2,0.2-0.6,0.5-1.2,0.5c-0.3,0-1.2-0.1-1.5-0.9
			c-0.1-0.3-0.1-0.6-0.1-0.9v-3h1.3V18c0,0.4,0,0.5,0,0.7c0.1,0.2,0.2,0.5,0.7,0.5c0.1,0,0.4,0,0.6-0.2c0.4-0.3,0.4-0.8,0.4-1.2
			v-2.3h1.3V20.1z"/>
		<path style="fill:#1A171B;" d="M202.1,14.7h-1.3v-1.1h1.3V14.7z M202.1,20.1h-1.3v-4.7h1.3V20.1z"/>
		<path style="fill:#1A171B;" d="M206.1,16.8c0-0.1,0-0.2-0.1-0.3c-0.1-0.2-0.3-0.3-0.8-0.3c0,0-0.7,0-0.7,0.5c0,0.1,0,0.3,0.2,0.4
			c0.1,0.1,0.3,0.1,0.6,0.2c0.9,0.2,1.4,0.3,1.7,0.6c0.3,0.2,0.4,0.5,0.4,0.9c0,0.3-0.1,0.6-0.3,0.9c-0.3,0.4-0.8,0.7-1.9,0.7
			c-0.2,0-1.4,0-1.9-0.8c-0.2-0.3-0.2-0.7-0.3-0.9h1.2c0,0.2,0.1,0.3,0.1,0.4c0.1,0.2,0.4,0.3,0.9,0.3c0.1,0,0.3,0,0.6-0.1
			c0.2-0.1,0.3-0.3,0.3-0.5c0,0,0-0.1,0-0.2c-0.1-0.2-0.2-0.2-0.4-0.3c-0.5-0.2-1.1-0.2-1.6-0.4c-0.2-0.1-1-0.3-1-1.2
			c0-0.6,0.3-0.9,0.5-1c0.6-0.5,1.4-0.4,1.5-0.4c0.1,0,1.2,0,1.8,0.6c0.1,0.2,0.3,0.4,0.3,0.9H206.1z"/>
		<path style="fill:#1A171B;" d="M211.1,16.8c0-0.1,0-0.2-0.1-0.3c-0.1-0.2-0.3-0.3-0.8-0.3c0,0-0.7,0-0.7,0.5c0,0.1,0,0.3,0.2,0.4
			c0.1,0.1,0.3,0.1,0.6,0.2c0.9,0.2,1.4,0.3,1.7,0.6c0.3,0.2,0.4,0.5,0.4,0.9c0,0.3-0.1,0.6-0.3,0.9c-0.3,0.4-0.8,0.7-1.9,0.7
			c-0.2,0-1.4,0-1.9-0.8c-0.2-0.3-0.2-0.7-0.3-0.9h1.2c0,0.2,0.1,0.3,0.1,0.4c0.1,0.2,0.4,0.3,0.9,0.3c0.1,0,0.3,0,0.6-0.1
			c0.2-0.1,0.3-0.3,0.3-0.5c0,0,0-0.1,0-0.2c-0.1-0.2-0.2-0.2-0.4-0.3c-0.5-0.2-1.1-0.2-1.6-0.4c-0.2-0.1-1-0.3-1-1.2
			c0-0.6,0.3-0.9,0.5-1c0.6-0.5,1.4-0.4,1.5-0.4c0.1,0,1.2,0,1.8,0.6c0.1,0.2,0.3,0.4,0.3,0.9H211.1z"/>
		<path style="fill:#1A171B;" d="M214.5,18.1c0,0.1,0,0.2,0.1,0.4c0.1,0.3,0.3,0.8,1.1,0.8c0.2,0,0.5,0,0.8-0.4
			c0-0.1,0.1-0.1,0.1-0.3h1.2c0,0.1-0.1,0.2-0.1,0.4c-0.2,0.5-0.7,0.9-1.2,1.1c-0.4,0.1-0.8,0.1-0.9,0.1c-0.2,0-0.6,0-1-0.2
			c-0.9-0.4-1.4-1.3-1.4-2.3c0-1.4,0.9-2.5,2.3-2.5c0.2,0,0.8,0,1.3,0.4c1,0.7,1,2.1,1,2.4H214.5z M216.6,17.2c0-0.1,0-0.3-0.1-0.5
			c-0.2-0.4-0.5-0.6-0.9-0.6c-0.4,0-0.7,0.2-0.9,0.6c-0.1,0.1-0.1,0.2-0.1,0.5H216.6z"/>
		<path style="fill:#1A171B;" d="M224.8,13.6h1.3v6.5h-1.2v-0.6c-0.1,0.1-0.1,0.2-0.2,0.2c-0.2,0.2-0.6,0.5-1.3,0.5
			c-0.5,0-1-0.2-1.4-0.5c-0.7-0.7-0.7-1.7-0.7-2c0-0.2,0-0.6,0.1-1c0.3-0.9,1-1.4,1.9-1.4c0.6,0,1,0.3,1.2,0.4
			c0.1,0.1,0.1,0.2,0.2,0.3V13.6z M223.3,16.4c-0.3,0.2-0.6,0.6-0.6,1.3c0,0.1,0,0.8,0.4,1.2c0.3,0.2,0.6,0.2,0.7,0.2
			c0.5,0,1.1-0.3,1.1-1.4c0-0.1,0-0.8-0.4-1.2c-0.1-0.1-0.3-0.2-0.7-0.2C223.5,16.3,223.3,16.4,223.3,16.4z"/>
		<path style="fill:#1A171B;" d="M228.4,18.1c0,0.1,0,0.2,0.1,0.4c0.1,0.3,0.3,0.8,1.1,0.8c0.2,0,0.5,0,0.8-0.4
			c0-0.1,0.1-0.1,0.1-0.3h1.2c0,0.1-0.1,0.2-0.1,0.4c-0.2,0.5-0.7,0.9-1.2,1.1c-0.4,0.1-0.8,0.1-0.9,0.1c-0.2,0-0.6,0-1-0.2
			c-0.9-0.4-1.4-1.3-1.4-2.3c0-1.4,0.9-2.5,2.4-2.5c0.2,0,0.8,0,1.3,0.4c1,0.7,1,2.1,1,2.4H228.4z M230.4,17.2c0-0.1,0-0.3-0.1-0.5
			c-0.2-0.4-0.5-0.6-0.9-0.6c-0.4,0-0.7,0.2-0.9,0.6c-0.1,0.1-0.1,0.2-0.1,0.5H230.4z"/>
		<path style="fill:#1A171B;" d="M235.4,16.8c0-0.1,0-0.2-0.1-0.3c-0.1-0.2-0.3-0.3-0.8-0.3c0,0-0.7,0-0.7,0.5c0,0.1,0,0.3,0.2,0.4
			c0.1,0.1,0.3,0.1,0.6,0.2c0.9,0.2,1.4,0.3,1.7,0.6c0.3,0.2,0.4,0.5,0.4,0.9c0,0.3-0.1,0.6-0.3,0.9c-0.3,0.4-0.8,0.7-1.9,0.7
			c-0.2,0-1.4,0-1.9-0.8c-0.2-0.3-0.2-0.7-0.3-0.9h1.2c0,0.2,0.1,0.3,0.1,0.4c0.1,0.2,0.4,0.3,0.9,0.3c0.1,0,0.3,0,0.6-0.1
			c0.2-0.1,0.3-0.3,0.3-0.5c0,0,0-0.1,0-0.2c-0.1-0.2-0.2-0.2-0.4-0.3c-0.5-0.2-1.1-0.2-1.6-0.4c-0.2-0.1-1-0.3-1-1.2
			c0-0.6,0.3-0.9,0.5-1c0.6-0.5,1.4-0.4,1.5-0.4c0.1,0,1.2,0,1.8,0.6c0.1,0.2,0.3,0.4,0.3,0.9H235.4z"/>
		<path style="fill:#1A171B;" d="M245.9,20.1H245l-0.1-0.7c0,0-0.1,0.2-0.3,0.3c-0.6,0.6-1.3,0.6-1.6,0.6c-0.4,0-1.3-0.1-2-0.9
			c-0.4-0.4-0.8-1.2-0.8-2.4c0-1.7,0.8-2.6,1.4-3c0.1-0.1,0.5-0.3,0.9-0.4c0.3-0.1,0.6-0.1,0.7-0.1c0.4,0,1.2,0,1.9,0.8
			c0.2,0.2,0.4,0.5,0.5,0.8c0.1,0.2,0.2,0.5,0.2,0.7l-1.4,0c0-0.1,0-0.2-0.1-0.4c-0.1-0.2-0.4-0.7-1.1-0.7c-0.4,0-0.7,0.2-0.9,0.3
			c-0.6,0.4-0.7,1.3-0.7,1.9c0,0.6,0.1,1.4,0.6,1.8c0.4,0.4,0.8,0.4,1,0.4c0.1,0,0.4,0,0.6-0.1c0.5-0.2,0.7-0.8,0.8-1.3h-1.3v-1h2.6
			V20.1z"/>
		<path style="fill:#1A171B;" d="M250.1,16.5c-0.1,0-0.2,0-0.4,0c-0.2,0-0.6,0-0.9,0.5c-0.2,0.3-0.2,0.7-0.2,1.1v2h-1.3v-4.7h1.2
			v0.9c0.1-0.2,0.4-0.7,1-0.9c0.1,0,0.2-0.1,0.4-0.1c0.1,0,0.2,0,0.2,0V16.5z"/>
		<path style="fill:#1A171B;" d="M253.9,20.1c-0.1-0.2-0.1-0.3-0.1-0.4c-0.3,0.2-0.7,0.6-1.5,0.6c-1.3,0-1.6-0.9-1.6-1.4
			c0-0.3,0.1-0.9,0.7-1.2c0.4-0.2,1-0.2,1.5-0.3c0.2,0,0.7-0.1,0.9-0.2c0.1-0.1,0.1-0.3,0.1-0.3c0-0.5-0.4-0.6-0.8-0.6
			c-0.2,0-0.4,0-0.5,0.1c-0.4,0.1-0.4,0.5-0.4,0.6l-1.2,0c0-0.3,0.1-0.6,0.3-0.9c0.3-0.4,0.8-0.7,1.8-0.7c0.1,0,0.7,0,1.1,0.2
			c0.2,0.1,0.4,0.2,0.5,0.3c0.2,0.1,0.3,0.3,0.3,0.4c0.1,0.2,0.1,0.4,0.1,0.8c0,0.3,0,0.6,0,1c0,0.3,0,0.7,0,1c0,0.7,0,1,0.2,1.3
			H253.9z M253.8,17.8c0,0-0.1,0.1-0.1,0.1c-0.2,0.1-0.4,0.1-0.9,0.2c0,0-0.3,0.1-0.5,0.1c-0.2,0.1-0.4,0.3-0.4,0.6
			c0,0.2,0.1,0.6,0.7,0.6c0.5,0,0.7-0.2,0.9-0.3c0.1-0.1,0.2-0.2,0.2-0.3c0.1-0.2,0.1-0.4,0.1-0.5V17.8z"/>
		<path style="fill:#1A171B;" d="M257.5,16c0.1-0.2,0.2-0.2,0.3-0.3c0.2-0.2,0.5-0.4,1.2-0.4c0.1,0,0.5,0,0.8,0.2
			c0.6,0.2,1.3,0.9,1.3,2.3c0,0.3,0,1.2-0.6,1.9c-0.2,0.2-0.6,0.6-1.4,0.6c-0.7,0-1.1-0.3-1.3-0.5c-0.1-0.1-0.1-0.2-0.2-0.2v2.2
			h-1.3v-6.3h1.2V16z M257.5,17.8c0,0.1,0,0.9,0.5,1.2c0.3,0.2,0.5,0.2,0.6,0.2c0.5,0,0.7-0.3,0.8-0.4c0.2-0.3,0.3-0.7,0.3-1
			c0-0.1,0-0.6-0.3-1c-0.1-0.2-0.4-0.4-0.9-0.4C258,16.3,257.5,16.7,257.5,17.8z"/>
		<path style="fill:#1A171B;" d="M263.3,16c0-0.1,0.1-0.1,0.2-0.2c0.2-0.2,0.6-0.5,1.3-0.5c0.3,0,1.3,0.1,1.5,1
			c0.1,0.3,0.1,0.5,0.1,0.8v3h-1.3v-2.8c0-0.1,0-0.1,0-0.2c0-0.1,0-0.5-0.3-0.7c-0.2-0.1-0.4-0.1-0.5-0.1c-0.5,0-0.7,0.3-0.8,0.4
			c-0.2,0.3-0.2,0.7-0.2,1v2.3H262v-6.5h1.3L263.3,16z"/>
		<path style="fill:#1A171B;" d="M268.9,14.7h-1.3v-1.1h1.3V14.7z M268.9,20.1h-1.3v-4.7h1.3V20.1z"/>
		<path style="fill:#1A171B;" d="M272.8,16.8c0-0.1,0-0.2-0.1-0.3c-0.1-0.2-0.3-0.3-0.8-0.3c0,0-0.7,0-0.7,0.5c0,0.1,0,0.3,0.2,0.4
			c0.1,0.1,0.3,0.1,0.6,0.2c0.9,0.2,1.4,0.3,1.7,0.6c0.3,0.2,0.4,0.5,0.4,0.9c0,0.3-0.1,0.6-0.3,0.9c-0.3,0.4-0.8,0.7-1.9,0.7
			c-0.2,0-1.4,0-1.9-0.8c-0.2-0.3-0.2-0.7-0.3-0.9h1.2c0,0.2,0.1,0.3,0.1,0.4c0.1,0.2,0.4,0.3,0.9,0.3c0.1,0,0.3,0,0.6-0.1
			c0.2-0.1,0.3-0.3,0.3-0.5c0,0,0-0.1,0-0.2c-0.1-0.2-0.2-0.2-0.4-0.3c-0.5-0.2-1.1-0.2-1.6-0.4c-0.2-0.1-1-0.3-1-1.2
			c0-0.6,0.3-0.9,0.5-1c0.6-0.5,1.4-0.4,1.5-0.4c0.1,0,1.2,0,1.8,0.6c0.1,0.2,0.3,0.4,0.3,0.9H272.8z"/>
		<path style="fill:#1A171B;" d="M277.7,16.3h-0.9v2.2c0,0.1,0,0.2,0,0.4c0,0.2,0.2,0.3,0.5,0.3c0.1,0,0.3,0,0.4,0l0,1
			c-0.3,0-0.5,0-0.8,0c-0.8,0-1.1-0.2-1.3-0.6c-0.1-0.3-0.1-0.5-0.1-0.8v-2.5h-0.8v-0.9h0.8V14h1.3v1.4h0.9V16.3z"/>
		<path style="fill:#1A171B;" d="M279.6,18.1c0,0.1,0,0.2,0.1,0.4c0.1,0.3,0.3,0.8,1.1,0.8c0.2,0,0.5,0,0.8-0.4
			c0-0.1,0.1-0.1,0.1-0.3h1.2c0,0.1-0.1,0.2-0.1,0.4c-0.2,0.5-0.7,0.9-1.2,1.1c-0.4,0.1-0.8,0.1-0.9,0.1c-0.2,0-0.6,0-1-0.2
			c-0.9-0.4-1.4-1.3-1.4-2.3c0-1.4,0.9-2.5,2.3-2.5c0.2,0,0.8,0,1.3,0.4c1,0.7,1,2.1,1,2.4H279.6z M281.7,17.2c0-0.1,0-0.3-0.1-0.5
			c-0.2-0.4-0.5-0.6-0.9-0.6c-0.4,0-0.7,0.2-0.9,0.6c-0.1,0.1-0.1,0.2-0.1,0.5H281.7z"/>
		<path style="fill:#1A171B;" d="M286.7,16.8c0-0.1,0-0.2-0.1-0.3c-0.1-0.2-0.3-0.3-0.8-0.3c0,0-0.7,0-0.7,0.5c0,0.1,0,0.3,0.2,0.4
			c0.1,0.1,0.3,0.1,0.6,0.2c0.9,0.2,1.4,0.3,1.7,0.6c0.3,0.2,0.4,0.5,0.4,0.9c0,0.3-0.1,0.6-0.3,0.9c-0.3,0.4-0.8,0.7-1.9,0.7
			c-0.2,0-1.4,0-1.9-0.8c-0.2-0.3-0.2-0.7-0.3-0.9h1.2c0,0.2,0.1,0.3,0.1,0.4c0.1,0.2,0.4,0.3,0.9,0.3c0.1,0,0.3,0,0.6-0.1
			c0.2-0.1,0.3-0.3,0.3-0.5c0,0,0-0.1,0-0.2c-0.1-0.2-0.2-0.2-0.4-0.3c-0.5-0.2-1.1-0.2-1.6-0.4c-0.2-0.1-1-0.3-1-1.2
			c0-0.6,0.3-0.9,0.5-1c0.6-0.5,1.4-0.4,1.5-0.4c0.1,0,1.2,0,1.8,0.6c0.1,0.2,0.3,0.4,0.3,0.9H286.7z"/>
		<path style="fill:#1A171B;" d="M165.9,29.8c0,0.2,0,0.3,0,0.5c0,0.8-0.3,1.2-0.5,1.5c-0.4,0.4-1,0.8-2.2,0.8c-1.1,0-1.6-0.3-2-0.6
			c-0.1-0.1-0.4-0.4-0.6-0.9c-0.1-0.4-0.2-0.6-0.2-1.3V26h1.4v3.9c0,0.1,0,0.3,0,0.6c0.1,0.5,0.3,1,1.3,1c0.4,0,0.6-0.1,0.8-0.2
			c0.5-0.3,0.5-0.9,0.5-1.4V26h1.4V29.8z"/>
		<path style="fill:#1A171B;" d="M168.4,28.4c0.1-0.2,0.2-0.3,0.4-0.4c0.2-0.1,0.6-0.4,1.1-0.4c0.3,0,1.2,0.1,1.5,0.9
			c0.1,0.3,0.1,0.6,0.1,0.9v3h-1.3v-2.7c0-0.3,0-0.7-0.3-0.9c-0.1-0.1-0.2-0.2-0.5-0.2c-0.5,0-0.7,0.3-0.8,0.4
			c-0.2,0.3-0.2,0.6-0.2,0.9v2.4h-1.3v-4.7h1.2V28.4z"/>
		<path style="fill:#1A171B;" d="M174,27.1h-1.3V26h1.3V27.1z M174,32.5h-1.3v-4.7h1.3V32.5z"/>
		<path style="fill:#1A171B;" d="M179,28.2c0.6,0.5,0.8,1.2,0.8,1.9c0,0.3,0,1.1-0.6,1.8c-0.3,0.3-0.8,0.7-1.7,0.7
			c-0.2,0-0.6,0-1-0.2c-1-0.4-1.4-1.3-1.4-2.3c0-0.5,0.1-0.8,0.2-1c0.2-0.5,0.8-1.4,2.2-1.4C177.7,27.6,178.4,27.7,179,28.2z
			 M176.3,30.1c0,0.8,0.2,1.1,0.5,1.4c0.2,0.2,0.5,0.2,0.6,0.2c0.1,0,0.3,0,0.6-0.2c0.4-0.3,0.5-0.9,0.5-1.4c0-0.5-0.1-1-0.5-1.3
			c-0.2-0.2-0.5-0.2-0.6-0.2C176.9,28.6,176.3,29,176.3,30.1z"/>
		<path style="fill:#1A171B;" d="M182.1,28.4c0.1-0.2,0.2-0.3,0.4-0.4c0.2-0.1,0.6-0.4,1.1-0.4c0.3,0,1.2,0.1,1.5,0.9
			c0.1,0.3,0.1,0.6,0.1,0.9v3h-1.3v-2.7c0-0.3,0-0.7-0.3-0.9c-0.1-0.1-0.2-0.2-0.5-0.2c-0.5,0-0.7,0.3-0.8,0.4
			c-0.2,0.3-0.2,0.6-0.2,0.9v2.4h-1.3v-4.7h1.2V28.4z"/>
		<path style="fill:#1A171B;" d="M187.4,30.5c0,0.1,0,0.2,0.1,0.4c0.1,0.3,0.3,0.8,1.1,0.8c0.2,0,0.5,0,0.8-0.4
			c0-0.1,0.1-0.1,0.1-0.3h1.2c0,0.1-0.1,0.2-0.1,0.4c-0.2,0.5-0.7,0.9-1.2,1.1c-0.4,0.1-0.8,0.1-0.9,0.1c-0.2,0-0.6,0-1-0.2
			c-0.9-0.4-1.4-1.3-1.4-2.3c0-1.4,0.9-2.5,2.3-2.5c0.2,0,0.8,0,1.3,0.4c1,0.7,1,2.1,1,2.4H187.4z M189.5,29.6c0-0.1,0-0.3-0.1-0.5
			c-0.2-0.4-0.5-0.6-0.9-0.6c-0.4,0-0.7,0.2-0.9,0.6c-0.1,0.1-0.1,0.2-0.1,0.5H189.5z"/>
		<path style="fill:#1A171B;" d="M198,27.9c0-0.1,0-0.2-0.1-0.4c-0.2-0.6-1-0.6-1.1-0.6c-0.8,0-1,0.4-1,0.7c0,0.2,0.1,0.3,0.1,0.3
			c0.2,0.2,0.3,0.2,0.7,0.3c0.5,0.1,1.1,0.3,1.6,0.4c0.5,0.2,0.9,0.4,1.1,0.8c0.3,0.4,0.3,0.8,0.3,1c0,0.5-0.1,0.8-0.4,1.2
			c-0.3,0.5-1,0.9-2.2,0.9c-1.6,0-2.3-0.7-2.6-1.4c-0.1-0.2-0.2-0.4-0.2-0.9h1.4c0,0.2,0,0.4,0.1,0.6c0.3,0.6,1.2,0.6,1.3,0.6
			c0.1,0,0.3,0,0.5-0.1c0.6-0.2,0.7-0.6,0.7-0.8c0-0.1,0-0.3-0.2-0.4c-0.2-0.2-0.9-0.3-1.2-0.4c-0.3-0.1-0.5-0.2-0.8-0.2
			c-0.6-0.2-1.2-0.4-1.5-1.1c-0.1-0.3-0.1-0.5-0.1-0.6c0-0.1,0-0.5,0.2-0.8c0.3-0.5,0.9-1.1,2.2-1.1c0.1,0,0.5,0,0.9,0.1
			c0.3,0.1,1.2,0.4,1.5,1.3c0.1,0.3,0.1,0.6,0.1,0.7L198,27.9z"/>
		<path style="fill:#1A171B;" d="M203.2,32.5h-1.4l-1.6-4.7h1.3l1,3.4l1-3.4h1.3L203.2,32.5z"/>
		<path style="fill:#1A171B;" d="M206.8,27.1h-1.3V26h1.3V27.1z M206.8,32.5h-1.3v-4.7h1.3V32.5z"/>
		<path style="fill:#1A171B;" d="M211.9,28.7l-2.6,2.8h2.8v1h-4.3v-0.9l2.6-2.8h-2.4v-0.9h4V28.7z"/>
		<path style="fill:#1A171B;" d="M216.9,28.7l-2.6,2.8h2.8v1h-4.3v-0.9l2.6-2.8h-2.4v-0.9h4V28.7z"/>
		<path style="fill:#1A171B;" d="M219,30.5c0,0.1,0,0.2,0.1,0.4c0.1,0.3,0.3,0.8,1.1,0.8c0.2,0,0.5,0,0.8-0.4c0-0.1,0.1-0.1,0.1-0.3
			h1.2c0,0.1-0.1,0.2-0.1,0.4c-0.2,0.5-0.7,0.9-1.2,1.1c-0.4,0.1-0.8,0.1-0.9,0.1c-0.2,0-0.6,0-1-0.2c-0.9-0.4-1.4-1.3-1.4-2.3
			c0-1.4,0.9-2.5,2.3-2.5c0.2,0,0.8,0,1.3,0.4c1,0.7,1,2.1,1,2.4H219z M221,29.6c0-0.1,0-0.3-0.1-0.5c-0.2-0.4-0.5-0.6-0.9-0.6
			c-0.4,0-0.7,0.2-0.9,0.6c-0.1,0.1-0.1,0.2-0.1,0.5H221z"/>
		<path style="fill:#1A171B;" d="M226.2,28.9c-0.1,0-0.2,0-0.4,0c-0.2,0-0.6,0-0.9,0.5c-0.2,0.3-0.2,0.7-0.2,1.1v2h-1.3v-4.7h1.2
			v0.9c0.1-0.2,0.4-0.7,1-0.9c0.1,0,0.2-0.1,0.4-0.1c0.1,0,0.2,0,0.2,0V28.9z"/>
		<path style="fill:#1A171B;" d="M230,32.5c-0.1-0.2-0.1-0.3-0.1-0.4c-0.3,0.2-0.7,0.6-1.5,0.6c-1.3,0-1.6-0.9-1.6-1.4
			c0-0.3,0.1-0.9,0.7-1.2c0.4-0.2,1-0.2,1.5-0.3c0.2,0,0.7-0.1,0.9-0.2c0.1-0.1,0.1-0.3,0.1-0.3c0-0.5-0.4-0.6-0.8-0.6
			c-0.2,0-0.4,0-0.5,0.1c-0.4,0.1-0.4,0.5-0.4,0.6l-1.2,0c0-0.3,0.1-0.6,0.3-0.9c0.3-0.4,0.8-0.7,1.8-0.7c0.1,0,0.7,0,1.1,0.2
			c0.2,0.1,0.4,0.2,0.5,0.3c0.2,0.1,0.3,0.3,0.3,0.4c0.1,0.2,0.1,0.4,0.1,0.8c0,0.3,0,0.6,0,1c0,0.3,0,0.7,0,1c0,0.7,0,1,0.2,1.3
			H230z M229.9,30.2c0,0-0.1,0.1-0.1,0.1c-0.2,0.1-0.4,0.1-0.9,0.2c0,0-0.3,0.1-0.5,0.1c-0.2,0.1-0.4,0.3-0.4,0.6
			c0,0.2,0.1,0.6,0.7,0.6c0.5,0,0.7-0.2,0.9-0.3c0.1-0.1,0.2-0.2,0.2-0.3c0.1-0.2,0.1-0.4,0.1-0.5V30.2z"/>
		<path style="fill:#1A171B;" d="M238.3,26h1.3v6.5h-1.2v-0.6c-0.1,0.1-0.1,0.2-0.2,0.2c-0.2,0.2-0.6,0.5-1.3,0.5
			c-0.5,0-1-0.2-1.4-0.5c-0.7-0.7-0.7-1.7-0.7-2c0-0.2,0-0.6,0.1-1c0.3-0.9,1-1.4,1.9-1.4c0.6,0,1,0.3,1.2,0.4
			c0.1,0.1,0.1,0.2,0.2,0.3V26z M236.8,28.8c-0.3,0.2-0.6,0.6-0.6,1.3c0,0.1,0,0.8,0.4,1.2c0.3,0.2,0.6,0.2,0.7,0.2
			c0.5,0,1.1-0.3,1.1-1.4c0-0.1,0-0.8-0.4-1.2c-0.1-0.1-0.3-0.2-0.7-0.2C237,28.7,236.8,28.7,236.8,28.8z"/>
		<path style="fill:#1A171B;" d="M241.9,30.5c0,0.1,0,0.2,0.1,0.4c0.1,0.3,0.3,0.8,1.1,0.8c0.2,0,0.5,0,0.8-0.4
			c0-0.1,0.1-0.1,0.1-0.3h1.2c0,0.1-0.1,0.2-0.1,0.4c-0.2,0.5-0.7,0.9-1.2,1.1c-0.4,0.1-0.8,0.1-0.9,0.1c-0.2,0-0.6,0-1-0.2
			c-0.9-0.4-1.4-1.3-1.4-2.3c0-1.4,0.9-2.5,2.3-2.5c0.2,0,0.8,0,1.3,0.4c1,0.7,1,2.1,1,2.4H241.9z M243.9,29.6c0-0.1,0-0.3-0.1-0.5
			c-0.2-0.4-0.5-0.6-0.9-0.6c-0.4,0-0.7,0.2-0.9,0.6c-0.1,0.1-0.1,0.2-0.1,0.5H243.9z"/>
		<path style="fill:#1A171B;" d="M247.5,27.1h-1.3V26h1.3V27.1z M247.5,32.5h-1.3v-4.7h1.3V32.5z"/>
		<path style="fill:#1A171B;" d="M256.9,32.5H256l-0.1-0.7c0,0-0.1,0.2-0.3,0.3c-0.6,0.6-1.3,0.6-1.6,0.6c-0.4,0-1.3-0.1-2-0.9
			c-0.4-0.4-0.8-1.2-0.8-2.4c0-1.7,0.8-2.6,1.4-3c0.1-0.1,0.5-0.3,0.9-0.4c0.3-0.1,0.6-0.1,0.7-0.1c0.4,0,1.2,0,1.9,0.8
			c0.2,0.2,0.4,0.5,0.5,0.8c0.1,0.2,0.2,0.5,0.2,0.7l-1.4,0c0-0.1,0-0.2-0.1-0.4c-0.1-0.2-0.4-0.7-1.1-0.7c-0.4,0-0.7,0.2-0.9,0.3
			c-0.6,0.4-0.7,1.3-0.7,1.9c0,0.6,0.1,1.4,0.6,1.8c0.4,0.4,0.8,0.4,1,0.4c0.1,0,0.4,0,0.6-0.1c0.5-0.2,0.7-0.8,0.8-1.3h-1.3v-1h2.6
			V32.5z"/>
		<path style="fill:#1A171B;" d="M261.1,28.9c-0.1,0-0.2,0-0.4,0c-0.2,0-0.6,0-0.9,0.5c-0.2,0.3-0.2,0.7-0.2,1.1v2h-1.3v-4.7h1.2
			v0.9c0.1-0.2,0.4-0.7,1-0.9c0.1,0,0.2-0.1,0.4-0.1c0.1,0,0.2,0,0.2,0V28.9z"/>
		<path style="fill:#1A171B;" d="M264.9,32.5c-0.1-0.2-0.1-0.3-0.1-0.4c-0.3,0.2-0.7,0.6-1.5,0.6c-1.3,0-1.6-0.9-1.6-1.4
			c0-0.3,0.1-0.9,0.7-1.2c0.4-0.2,1-0.2,1.5-0.3c0.2,0,0.7-0.1,0.9-0.2c0.1-0.1,0.1-0.3,0.1-0.3c0-0.5-0.4-0.6-0.8-0.6
			c-0.2,0-0.4,0-0.5,0.1c-0.4,0.1-0.4,0.5-0.4,0.6l-1.2,0c0-0.3,0.1-0.6,0.3-0.9c0.3-0.4,0.8-0.7,1.8-0.7c0.1,0,0.7,0,1.1,0.2
			c0.2,0.1,0.4,0.2,0.5,0.3c0.2,0.1,0.3,0.3,0.3,0.4c0.1,0.2,0.1,0.4,0.1,0.8c0,0.3,0,0.6,0,1c0,0.3,0,0.7,0,1c0,0.7,0,1,0.2,1.3
			H264.9z M264.8,30.2c0,0-0.1,0.1-0.1,0.1c-0.2,0.1-0.4,0.1-0.9,0.2c0,0-0.3,0.1-0.5,0.1c-0.2,0.1-0.4,0.3-0.4,0.6
			c0,0.2,0.1,0.6,0.7,0.6c0.5,0,0.7-0.2,0.9-0.3c0.1-0.1,0.2-0.2,0.2-0.3c0.1-0.2,0.1-0.4,0.1-0.5V30.2z"/>
		<path style="fill:#1A171B;" d="M269.8,27c-0.2,0-0.3,0-0.5,0c0,0-0.3,0-0.4,0.1c-0.1,0.1-0.1,0.3-0.1,0.4v0.4h0.9v0.9h-0.9v3.8
			h-1.3v-3.8h-0.7v-0.9h0.7v-0.2c0-0.4,0-0.8,0.3-1.1c0.4-0.4,0.9-0.5,1.5-0.5c0.2,0,0.3,0,0.5,0V27z"/>
		<path style="fill:#1A171B;" d="M271.9,27.1h-1.3V26h1.3V27.1z M271.9,32.5h-1.3v-4.7h1.3V32.5z"/>
		<path style="fill:#1A171B;" d="M276.3,29.4c0-0.1,0-0.1-0.1-0.2c-0.1-0.4-0.5-0.6-0.9-0.6c-0.6,0-1.2,0.4-1.2,1.5
			c0,0.2,0,1.5,1.2,1.5c0.6,0,0.9-0.4,1-0.9h1.2c-0.1,0.4-0.2,0.8-0.5,1.2c-0.6,0.7-1.5,0.8-1.8,0.8c-0.6,0-1.1-0.1-1.5-0.5
			c-0.3-0.3-0.9-0.8-0.9-2c0-0.2,0-0.6,0.2-1.1c0.2-0.5,0.8-1.4,2.2-1.4c1.5,0,2,0.8,2.2,1.4c0,0.1,0,0.2,0.1,0.3H276.3z"/>
		<path style="fill:#1A171B;" d="M279.8,27.1h-1.3V26h1.3V27.1z M279.8,32.5h-1.3v-4.7h1.3V32.5z"/>
		<path style="fill:#1A171B;" d="M164,40.3c0-0.1,0-0.2-0.1-0.4c-0.2-0.6-1-0.6-1.1-0.6c-0.8,0-1,0.4-1,0.7c0,0.2,0.1,0.3,0.1,0.3
			c0.2,0.2,0.3,0.2,0.7,0.3c0.5,0.1,1.1,0.3,1.6,0.4c0.5,0.2,0.8,0.4,1.1,0.8c0.3,0.4,0.3,0.8,0.3,1c0,0.5-0.1,0.8-0.4,1.2
			c-0.3,0.5-1,0.9-2.2,0.9c-1.6,0-2.3-0.7-2.6-1.4c-0.1-0.2-0.2-0.4-0.2-0.9h1.4c0,0.2,0,0.4,0.1,0.6c0.3,0.6,1.2,0.6,1.3,0.6
			c0.1,0,0.3,0,0.5-0.1c0.6-0.2,0.7-0.6,0.7-0.8c0-0.1,0-0.3-0.2-0.4c-0.2-0.2-0.9-0.3-1.2-0.4c-0.3-0.1-0.5-0.2-0.8-0.2
			c-0.6-0.2-1.2-0.4-1.5-1.1c-0.1-0.3-0.1-0.5-0.1-0.6c0-0.1,0-0.5,0.2-0.8c0.3-0.5,0.9-1.1,2.2-1.1c0.1,0,0.5,0,0.9,0.1
			c0.3,0.1,1.2,0.4,1.5,1.3c0.1,0.3,0.1,0.6,0.1,0.7L164,40.3z"/>
		<path style="fill:#1A171B;" d="M171.9,44.8h-1.3l-0.8-3.4l-0.8,3.4h-1.3l-1.5-4.7h1.4l0.9,3.4l0.8-3.4h1.3l0.8,3.4l0.9-3.4h1.3
			L171.9,44.8z"/>
		<path style="fill:#1A171B;" d="M175.4,39.5h-1.3v-1.1h1.3V39.5z M175.4,44.8h-1.3v-4.7h1.3V44.8z"/>
		<path style="fill:#1A171B;" d="M179.4,41.5c0-0.1,0-0.2-0.1-0.3c-0.1-0.2-0.3-0.3-0.8-0.3c0,0-0.7,0-0.7,0.5c0,0.1,0,0.3,0.2,0.4
			c0.1,0.1,0.3,0.1,0.6,0.2c0.9,0.2,1.4,0.3,1.7,0.6c0.3,0.2,0.4,0.5,0.4,0.9c0,0.3-0.1,0.6-0.3,0.9c-0.3,0.4-0.8,0.7-1.9,0.7
			c-0.2,0-1.4,0-1.9-0.8c-0.2-0.3-0.2-0.7-0.3-0.9h1.2c0,0.2,0.1,0.3,0.1,0.4c0.1,0.2,0.4,0.3,0.8,0.3c0.1,0,0.3,0,0.6-0.1
			c0.2-0.1,0.3-0.3,0.3-0.5c0,0,0-0.1,0-0.2c-0.1-0.2-0.2-0.2-0.4-0.3c-0.5-0.2-1.1-0.2-1.6-0.4c-0.2-0.1-1-0.3-1-1.2
			c0-0.6,0.3-0.9,0.5-1c0.6-0.5,1.4-0.4,1.5-0.4c0.1,0,1.2,0,1.8,0.6c0.1,0.2,0.3,0.4,0.3,0.9H179.4z"/>
		<path style="fill:#1A171B;" d="M184.4,41.5c0-0.1,0-0.2-0.1-0.3c-0.1-0.2-0.3-0.3-0.8-0.3c0,0-0.7,0-0.7,0.5c0,0.1,0,0.3,0.2,0.4
			c0.1,0.1,0.3,0.1,0.6,0.2c0.9,0.2,1.4,0.3,1.7,0.6c0.3,0.2,0.4,0.5,0.4,0.9c0,0.3-0.1,0.6-0.3,0.9c-0.3,0.4-0.8,0.7-1.9,0.7
			c-0.2,0-1.4,0-1.9-0.8c-0.2-0.3-0.2-0.7-0.3-0.9h1.2c0,0.2,0.1,0.3,0.1,0.4c0.1,0.2,0.4,0.3,0.8,0.3c0.1,0,0.3,0,0.6-0.1
			c0.2-0.1,0.3-0.3,0.3-0.5c0,0,0-0.1,0-0.2c-0.1-0.2-0.2-0.2-0.4-0.3c-0.5-0.2-1.1-0.2-1.6-0.4c-0.2-0.1-1-0.3-1-1.2
			c0-0.6,0.3-0.9,0.5-1c0.6-0.5,1.4-0.4,1.5-0.4c0.1,0,1.2,0,1.8,0.6c0.1,0.2,0.3,0.4,0.3,0.9H184.4z"/>
		<path style="fill:#1A171B;" d="M194.9,44.8H194l-0.1-0.7c0,0-0.1,0.2-0.3,0.3C193,45,192.4,45,192,45c-0.4,0-1.3-0.1-2-0.9
			c-0.4-0.4-0.8-1.2-0.8-2.4c0-1.7,0.8-2.6,1.4-3c0.1-0.1,0.5-0.3,0.9-0.4c0.3-0.1,0.6-0.1,0.7-0.1c0.4,0,1.2,0,1.9,0.8
			c0.2,0.2,0.4,0.5,0.5,0.8c0.1,0.2,0.2,0.5,0.2,0.7l-1.4,0c0-0.1,0-0.2-0.1-0.4c-0.1-0.2-0.4-0.7-1.1-0.7c-0.4,0-0.7,0.2-0.9,0.3
			c-0.6,0.4-0.7,1.3-0.7,1.9c0,0.6,0.1,1.4,0.6,1.8c0.4,0.4,0.8,0.4,1,0.4c0.1,0,0.4,0,0.6-0.1c0.5-0.2,0.7-0.8,0.8-1.3h-1.3v-1h2.6
			V44.8z"/>
		<path style="fill:#1A171B;" d="M199.1,41.2c-0.1,0-0.2,0-0.4,0c-0.2,0-0.6,0-0.9,0.5c-0.2,0.3-0.2,0.7-0.2,1.1v2h-1.3v-4.7h1.2V41
			c0.1-0.2,0.4-0.7,1-0.9c0.1,0,0.2-0.1,0.4-0.1c0.1,0,0.2,0,0.2,0V41.2z"/>
		<path style="fill:#1A171B;" d="M202.9,44.8c-0.1-0.2-0.1-0.3-0.1-0.4c-0.3,0.2-0.7,0.6-1.5,0.6c-1.3,0-1.6-0.9-1.6-1.4
			c0-0.3,0.1-0.9,0.7-1.2c0.4-0.2,1-0.2,1.5-0.3c0.2,0,0.7-0.1,0.9-0.2c0.1-0.1,0.1-0.3,0.1-0.3c0-0.5-0.4-0.6-0.8-0.6
			c-0.2,0-0.4,0-0.5,0.1c-0.4,0.1-0.4,0.5-0.4,0.6l-1.2,0c0-0.3,0.1-0.6,0.3-0.9c0.3-0.4,0.8-0.7,1.8-0.7c0.1,0,0.7,0,1.1,0.2
			c0.2,0.1,0.4,0.2,0.5,0.3c0.2,0.1,0.3,0.3,0.3,0.4c0.1,0.2,0.1,0.4,0.1,0.8c0,0.3,0,0.6,0,1c0,0.3,0,0.7,0,1c0,0.7,0,1,0.2,1.3
			H202.9z M202.8,42.6c0,0-0.1,0.1-0.1,0.1c-0.2,0.1-0.4,0.1-0.9,0.2c0,0-0.3,0.1-0.5,0.1c-0.2,0.1-0.4,0.3-0.4,0.6
			c0,0.2,0.1,0.6,0.7,0.6c0.5,0,0.7-0.2,0.9-0.3c0.1-0.1,0.2-0.2,0.2-0.3c0.1-0.2,0.1-0.4,0.1-0.5V42.6z"/>
		<path style="fill:#1A171B;" d="M206.5,40.7c0.1-0.2,0.2-0.2,0.3-0.3c0.2-0.2,0.5-0.4,1.2-0.4c0.1,0,0.5,0,0.8,0.2
			c0.6,0.2,1.3,0.9,1.3,2.3c0,0.3,0,1.2-0.6,1.9c-0.2,0.2-0.6,0.6-1.4,0.6c-0.7,0-1.1-0.3-1.3-0.5c-0.1-0.1-0.1-0.2-0.2-0.2v2.2
			h-1.3v-6.3h1.2V40.7z M206.5,42.5c0,0.1,0,0.9,0.5,1.2c0.3,0.2,0.5,0.2,0.6,0.2c0.5,0,0.7-0.3,0.8-0.4c0.2-0.3,0.3-0.7,0.3-1
			c0-0.1,0-0.6-0.3-1c-0.1-0.2-0.4-0.4-0.9-0.4C207.1,41.1,206.5,41.4,206.5,42.5z"/>
		<path style="fill:#1A171B;" d="M212.3,40.8c0-0.1,0.1-0.1,0.2-0.2c0.2-0.2,0.6-0.5,1.3-0.5c0.3,0,1.3,0.1,1.5,1
			c0.1,0.3,0.1,0.5,0.1,0.8v3h-1.3v-2.8c0-0.1,0-0.1,0-0.2c0-0.1,0-0.5-0.3-0.7c-0.2-0.1-0.4-0.1-0.5-0.1c-0.5,0-0.7,0.3-0.8,0.4
			c-0.2,0.3-0.2,0.7-0.2,1v2.3h-1.3v-6.5h1.3L212.3,40.8z"/>
		<path style="fill:#1A171B;" d="M217.9,39.5h-1.3v-1.1h1.3V39.5z M217.9,44.8h-1.3v-4.7h1.3V44.8z"/>
		<path style="fill:#1A171B;" d="M222.4,41.8c0-0.1,0-0.1-0.1-0.2c-0.1-0.4-0.5-0.6-0.9-0.6c-0.6,0-1.2,0.4-1.2,1.5
			c0,0.2,0,1.5,1.2,1.5c0.6,0,1-0.4,1-0.9h1.2c-0.1,0.4-0.2,0.8-0.5,1.2c-0.6,0.7-1.5,0.8-1.8,0.8c-0.6,0-1.1-0.1-1.5-0.5
			c-0.3-0.3-0.9-0.8-0.9-2c0-0.2,0-0.6,0.2-1.1c0.2-0.5,0.8-1.4,2.2-1.4c1.5,0,2,0.8,2.2,1.4c0,0.1,0,0.2,0.1,0.3H222.4z"/>
		<path style="fill:#1A171B;" d="M229.7,38.4c0.2,0,0.4,0,0.6,0c0.6,0,1,0.2,1.5,0.5c1.1,0.8,1.1,2.2,1.1,2.6c0,0.3,0,0.6-0.1,0.7
			c-0.1,0.7-0.3,1.2-0.7,1.7c-0.1,0.2-0.4,0.5-1,0.7c-0.5,0.2-1.1,0.2-1.6,0.2h-2.4v-6.5H229.7z M228.7,43.6h1.1
			c0.6,0,1-0.1,1.4-0.6c0.2-0.3,0.4-0.7,0.4-1.5c0-0.2,0-1.1-0.6-1.6c-0.1-0.1-0.3-0.2-0.5-0.3c-0.2-0.1-0.4-0.1-0.9-0.1h-0.9V43.6z
			"/>
		<path style="fill:#1A171B;" d="M235.1,42.8c0,0.1,0,0.2,0.1,0.4c0.1,0.3,0.3,0.8,1.1,0.8c0.2,0,0.5,0,0.8-0.4
			c0-0.1,0.1-0.1,0.1-0.3h1.2c0,0.1-0.1,0.2-0.1,0.4c-0.2,0.5-0.7,0.9-1.2,1.1c-0.4,0.1-0.8,0.1-0.9,0.1c-0.2,0-0.6,0-1-0.2
			c-0.9-0.4-1.4-1.3-1.4-2.3c0-1.4,0.9-2.5,2.3-2.5c0.2,0,0.8,0,1.3,0.4c1,0.7,1,2.1,1,2.4H235.1z M237.1,42c0-0.1,0-0.3-0.1-0.5
			c-0.2-0.4-0.5-0.6-0.9-0.6c-0.4,0-0.7,0.2-0.9,0.6c-0.1,0.1-0.1,0.2-0.1,0.5H237.1z"/>
		<path style="fill:#1A171B;" d="M242.1,41.5c0-0.1,0-0.2-0.1-0.3c-0.1-0.2-0.3-0.3-0.8-0.3c0,0-0.7,0-0.7,0.5c0,0.1,0,0.3,0.2,0.4
			c0.1,0.1,0.3,0.1,0.6,0.2c0.9,0.2,1.4,0.3,1.7,0.6c0.3,0.2,0.4,0.5,0.4,0.9c0,0.3-0.1,0.6-0.3,0.9c-0.3,0.4-0.8,0.7-1.9,0.7
			c-0.2,0-1.4,0-1.9-0.8c-0.2-0.3-0.2-0.7-0.3-0.9h1.2c0,0.2,0.1,0.3,0.1,0.4c0.1,0.2,0.4,0.3,0.9,0.3c0.1,0,0.3,0,0.6-0.1
			c0.2-0.1,0.3-0.3,0.3-0.5c0,0,0-0.1,0-0.2c-0.1-0.2-0.2-0.2-0.4-0.3c-0.5-0.2-1.1-0.2-1.6-0.4c-0.2-0.1-1-0.3-1-1.2
			c0-0.6,0.3-0.9,0.5-1c0.6-0.5,1.4-0.4,1.5-0.4c0.1,0,1.2,0,1.8,0.6c0.1,0.2,0.3,0.4,0.3,0.9H242.1z"/>
		<path style="fill:#1A171B;" d="M245.7,39.5h-1.3v-1.1h1.3V39.5z M245.7,44.8h-1.3v-4.7h1.3V44.8z"/>
		<path style="fill:#1A171B;" d="M251.5,44.2c0,0.1,0,0.2,0,0.3c0,0.2,0,0.8-0.4,1.3c-0.5,0.6-1.2,0.7-1.9,0.7c-0.1,0-0.4,0-0.7,0
			c-0.2,0-1.2-0.2-1.5-1.1c0-0.1-0.1-0.2-0.1-0.3h1.3c0,0.1,0,0.2,0.1,0.2c0.1,0.2,0.4,0.4,0.9,0.4c0.1,0,0.4,0,0.6-0.1
			c0.4-0.2,0.4-0.7,0.5-1.1V44c-0.1,0.1-0.2,0.2-0.4,0.4c-0.3,0.3-0.7,0.3-1.1,0.3c-0.3,0-0.9,0-1.5-0.6c-0.3-0.3-0.6-0.8-0.6-1.7
			c0-0.2,0-1,0.5-1.6c0.2-0.3,0.7-0.7,1.6-0.7c0.2,0,0.7,0,1.1,0.4c0.1,0.1,0.2,0.2,0.3,0.4v-0.6h1.2V44.2z M248.2,41.4
			c-0.1,0.2-0.2,0.4-0.2,0.9c0,0.1,0,0.3,0.1,0.5c0.1,0.2,0.3,0.8,1.1,0.8c0.1,0,0.4,0,0.6-0.2c0.2-0.2,0.5-0.5,0.5-1.2
			c0-0.7-0.3-1.3-1.1-1.3C248.6,41,248.4,41.3,248.2,41.4z"/>
		<path style="fill:#1A171B;" d="M253.9,40.8c0.1-0.2,0.2-0.3,0.4-0.4c0.2-0.1,0.6-0.4,1.1-0.4c0.3,0,1.2,0.1,1.5,0.9
			c0.1,0.3,0.1,0.6,0.1,0.9v3h-1.3v-2.7c0-0.3,0-0.7-0.3-0.9c-0.1-0.1-0.2-0.2-0.5-0.2c-0.5,0-0.7,0.3-0.8,0.4
			c-0.2,0.3-0.2,0.6-0.2,0.9v2.4h-1.3v-4.7h1.2V40.8z"/>
		<path style="fill:#1A171B;" d="M266.8,44.8h-1.5l-0.5-1.4h-2.4l-0.5,1.4h-1.5l2.5-6.5h1.5L266.8,44.8z M263.6,39.8l-0.9,2.5h1.7
			L263.6,39.8z"/>
		<path style="fill:#1A171B;" d="M270.2,41.5c0-0.1,0-0.2-0.1-0.3c-0.1-0.2-0.3-0.3-0.8-0.3c0,0-0.7,0-0.7,0.5c0,0.1,0,0.3,0.2,0.4
			c0.1,0.1,0.3,0.1,0.6,0.2c0.9,0.2,1.4,0.3,1.7,0.6c0.3,0.2,0.4,0.5,0.4,0.9c0,0.3-0.1,0.6-0.3,0.9c-0.3,0.4-0.8,0.7-1.9,0.7
			c-0.2,0-1.4,0-1.9-0.8c-0.2-0.3-0.2-0.7-0.3-0.9h1.2c0,0.2,0.1,0.3,0.1,0.4c0.1,0.2,0.4,0.3,0.8,0.3c0.1,0,0.3,0,0.6-0.1
			c0.2-0.1,0.3-0.3,0.3-0.5c0,0,0-0.1,0-0.2c-0.1-0.2-0.2-0.2-0.4-0.3c-0.5-0.2-1.1-0.2-1.6-0.4c-0.2-0.1-1-0.3-1-1.2
			c0-0.6,0.3-0.9,0.5-1c0.6-0.5,1.4-0.4,1.5-0.4c0.1,0,1.2,0,1.8,0.6c0.1,0.2,0.3,0.4,0.3,0.9H270.2z"/>
		<path style="fill:#1A171B;" d="M275.3,41.5c0-0.1,0-0.2-0.1-0.3c-0.1-0.2-0.3-0.3-0.8-0.3c0,0-0.7,0-0.7,0.5c0,0.1,0,0.3,0.2,0.4
			c0.1,0.1,0.3,0.1,0.6,0.2c0.9,0.2,1.4,0.3,1.7,0.6c0.3,0.2,0.4,0.5,0.4,0.9c0,0.3-0.1,0.6-0.3,0.9c-0.3,0.4-0.8,0.7-1.9,0.7
			c-0.2,0-1.4,0-1.9-0.8c-0.2-0.3-0.2-0.7-0.3-0.9h1.2c0,0.2,0.1,0.3,0.1,0.4c0.1,0.2,0.4,0.3,0.9,0.3c0.1,0,0.3,0,0.6-0.1
			c0.2-0.1,0.3-0.3,0.3-0.5c0,0,0-0.1,0-0.2c-0.1-0.2-0.2-0.2-0.4-0.3c-0.5-0.2-1.1-0.2-1.6-0.4c-0.2-0.1-1-0.3-1-1.2
			c0-0.6,0.3-0.9,0.5-1c0.6-0.5,1.4-0.4,1.5-0.4c0.1,0,1.2,0,1.8,0.6c0.1,0.2,0.3,0.4,0.3,0.9H275.3z"/>
		<path style="fill:#1A171B;" d="M281.4,40.6c0.6,0.5,0.8,1.2,0.8,1.9c0,0.3,0,1.1-0.6,1.8c-0.3,0.3-0.8,0.7-1.7,0.7
			c-0.2,0-0.6,0-1-0.2c-1-0.4-1.4-1.3-1.4-2.3c0-0.5,0.1-0.8,0.2-1c0.2-0.5,0.8-1.4,2.2-1.4C280,40,280.8,40,281.4,40.6z
			 M278.6,42.5c0,0.8,0.2,1.1,0.5,1.4c0.2,0.2,0.5,0.2,0.6,0.2c0.1,0,0.3,0,0.6-0.2c0.4-0.3,0.5-0.9,0.5-1.4c0-0.5-0.1-1-0.5-1.3
			c-0.2-0.2-0.5-0.2-0.6-0.2C279.2,41,278.6,41.4,278.6,42.5z"/>
		<path style="fill:#1A171B;" d="M286.4,41.8c0-0.1,0-0.1-0.1-0.2c-0.1-0.4-0.5-0.6-0.9-0.6c-0.6,0-1.2,0.4-1.2,1.5
			c0,0.2,0,1.5,1.2,1.5c0.6,0,1-0.4,1-0.9h1.2c-0.1,0.4-0.2,0.8-0.5,1.2c-0.6,0.7-1.5,0.8-1.8,0.8c-0.6,0-1.1-0.1-1.5-0.5
			c-0.3-0.3-0.9-0.8-0.9-2c0-0.2,0-0.6,0.2-1.1c0.2-0.5,0.8-1.4,2.2-1.4c1.5,0,2,0.8,2.2,1.4c0,0.1,0,0.2,0.1,0.3H286.4z"/>
		<path style="fill:#1A171B;" d="M289.9,39.5h-1.3v-1.1h1.3V39.5z M289.9,44.8h-1.3v-4.7h1.3V44.8z"/>
		<path style="fill:#1A171B;" d="M294.1,44.8c-0.1-0.2-0.1-0.3-0.1-0.4c-0.3,0.2-0.7,0.6-1.5,0.6c-1.3,0-1.6-0.9-1.6-1.4
			c0-0.3,0.1-0.9,0.7-1.2c0.4-0.2,1-0.2,1.5-0.3c0.2,0,0.7-0.1,0.9-0.2c0.1-0.1,0.1-0.3,0.1-0.3c0-0.5-0.4-0.6-0.8-0.6
			c-0.2,0-0.4,0-0.5,0.1c-0.4,0.1-0.4,0.5-0.4,0.6l-1.2,0c0-0.3,0.1-0.6,0.3-0.9c0.3-0.4,0.8-0.7,1.8-0.7c0.1,0,0.7,0,1.1,0.2
			c0.2,0.1,0.4,0.2,0.5,0.3c0.2,0.1,0.3,0.3,0.3,0.4c0.1,0.2,0.1,0.4,0.1,0.8c0,0.3,0,0.6,0,1c0,0.3,0,0.7,0,1c0,0.7,0,1,0.2,1.3
			H294.1z M294,42.6c0,0-0.1,0.1-0.1,0.1c-0.2,0.1-0.4,0.1-0.9,0.2c0,0-0.3,0.1-0.5,0.1c-0.2,0.1-0.4,0.3-0.4,0.6
			c0,0.2,0.1,0.6,0.7,0.6c0.5,0,0.7-0.2,0.9-0.3c0.1-0.1,0.2-0.2,0.2-0.3c0.1-0.2,0.1-0.4,0.1-0.5V42.6z"/>
		<path style="fill:#1A171B;" d="M299,41h-0.9v2.2c0,0.1,0,0.2,0,0.4c0,0.2,0.2,0.3,0.5,0.3c0.1,0,0.3,0,0.4,0l0,1
			c-0.3,0-0.5,0-0.8,0c-0.8,0-1.1-0.2-1.3-0.6c-0.1-0.3-0.1-0.5-0.1-0.8V41H296v-0.9h0.8v-1.4h1.3v1.4h0.9V41z"/>
		<path style="fill:#1A171B;" d="M301.3,39.5H300v-1.1h1.3V39.5z M301.3,44.8H300v-4.7h1.3V44.8z"/>
		<path style="fill:#1A171B;" d="M306.3,40.6c0.6,0.5,0.8,1.2,0.8,1.9c0,0.3,0,1.1-0.6,1.8c-0.3,0.3-0.8,0.7-1.7,0.7
			c-0.2,0-0.6,0-1-0.2c-1-0.4-1.4-1.3-1.4-2.3c0-0.5,0.1-0.8,0.2-1c0.2-0.5,0.8-1.4,2.2-1.4C305,40,305.7,40,306.3,40.6z
			 M303.6,42.5c0,0.8,0.2,1.1,0.5,1.4c0.2,0.2,0.5,0.2,0.6,0.2c0.1,0,0.3,0,0.6-0.2c0.4-0.3,0.5-0.9,0.5-1.4c0-0.5-0.1-1-0.5-1.3
			c-0.2-0.2-0.5-0.2-0.6-0.2C304.2,41,303.6,41.4,303.6,42.5z"/>
		<path style="fill:#1A171B;" d="M309.3,40.8c0.1-0.2,0.2-0.3,0.4-0.4c0.2-0.1,0.6-0.4,1.1-0.4c0.3,0,1.2,0.1,1.5,0.9
			c0.1,0.3,0.1,0.6,0.1,0.9v3h-1.3v-2.7c0-0.3,0-0.7-0.3-0.9c-0.1-0.1-0.2-0.2-0.5-0.2c-0.5,0-0.7,0.3-0.8,0.4
			c-0.2,0.3-0.2,0.6-0.2,0.9v2.4h-1.3v-4.7h1.2V40.8z"/>
	</g>
</g>
</svg>
