<?xml version="1.0" encoding="utf-8"?>
<!-- Generator: Adobe Illustrator 18.1.1, SVG Export Plug-In . SVG Version: 6.00 Build 0)  -->
<svg version="1.1" id="Ebene_1" xmlns="http://www.w3.org/2000/svg" xmlns:xlink="http://www.w3.org/1999/xlink" x="0px" y="0px"
	 width="140.7px" height="62px" viewBox="144 -18 140.7 62" enable-background="new 144 -18 140.7 62" xml:space="preserve">
<g>
	<g>
		<path fill="#E0001A" d="M171.7-4.1c-0.2-1.2-0.3-2.1-1-3.2c-1.1-1.6-3.1-2.7-7.1-2.7c0,0-6.9-0.3-6.9,4.3c0,0.9,0.3,2.5,2.2,3.3
			c1,0.5,3.2,1.1,5.9,1.7c8.5,1.7,12.8,2.7,16.1,5.8c2.5,2.2,3.5,4.9,3.5,8.2c0,3-0.8,5.8-2.6,8.1c-2.8,3.6-7.8,6.7-17.4,6.7
			c-1.8,0-12.9,0.3-18-7.4c-2.1-3.2-2.3-6.7-2.4-8h11.4c0.3,2.2,0.8,3.2,1.4,4.2c1.1,1.5,3.7,3.1,7.9,3.1c0.7,0,3.2,0,5.3-1.2
			c2.2-1.2,2.7-3.1,2.7-4.3c0-0.3-0.1-0.9-0.4-1.7c-0.7-1.4-2-2.1-3.5-2.6c-5-1.6-9.9-2.1-14.9-3.7c-2.3-0.8-8.9-3.1-8.9-11.1
			c0-5.3,2.7-8.1,4.3-9.3c5.3-4.3,12.7-4.1,14.3-4.1c1.1,0,11.4-0.3,16.4,5.6c1.3,1.6,2.6,3.9,3,8.3H171.7z"/>
		<path fill="#E0001A" d="M234,21.4c-0.1,0.9-0.1,1.8-0.1,2.7c-0.1,1.9-0.1,7.7-4,12.4c-4.4,5.2-11.4,6.5-17.9,6.5
			c-1,0-3.5-0.1-6.2-0.4c-2.2-0.3-11.1-1.6-13.8-10.1c-0.3-0.7-0.5-1.5-0.7-3.1h12c0.2,0.9,0.4,1.4,0.5,1.8c1.1,2.1,3.5,3.8,8.5,3.8
			c0.8,0,3.3,0,5.8-1.2c4.1-2,4.2-6.2,4.3-10.1v-5c-0.6,0.8-1.4,2.1-3.3,3.5c-3.1,2.4-6.2,3.2-10.2,3.2c-2.4,0-8.7-0.3-13.6-5.4
			c-2.5-2.6-5.4-7.4-5.4-15.8c0-2.2,0-9.4,4.6-15.2c2-2.6,6.5-7,14.9-7c1.6,0,6.5,0.2,10.4,3.6c0.8,0.7,1.7,1.6,2.9,3.4v-5.7H234
			V21.4z M204-4.6c-1.2,1.7-2.3,4.2-2.3,8.7c0,0.8-0.1,2.7,0.6,4.8c0.6,2.1,2.9,7.7,9.9,7.7c0.9,0,3.4-0.1,5.5-1.5
			c2.2-1.4,4.8-5,4.8-11.2c0-6.7-3.1-12.5-10.5-12.4C207.2-8.6,205.1-6.3,204-4.6z"/>
		<path fill="#E0001A" d="M268.3,26.8h-13.4l-15-43.5h12.5l9.4,31.6l9.4-31.6h11.9L268.3,26.8z"/>
	</g>
</g>
</svg>
